<svg id="Layer_1" data-name="Layer 1" xmlns="http://www.w3.org/2000/svg" viewBox="0 0 316 96"><defs><style>.cls-1{fill:#fff;}</style></defs><title>mygovid_logo_white</title><path class="cls-1" d="M293.45,21.91,284,23.54v16c0-.65-1.57-1-2.83-1.3a10.34,10.34,0,0,0-3.47-.33,13,13,0,0,0-6.3,1.3,13.21,13.21,0,0,0-4.72,3.59,16.81,16.81,0,0,0-2.84,5.87,29.51,29.51,0,0,0-.95,7.83,18.58,18.58,0,0,0,1.27,7.5,17.88,17.88,0,0,0,3.46,5.87,13.16,13.16,0,0,0,5.67,3.59,18.48,18.48,0,0,0,7.56,1.3,15.1,15.1,0,0,0,3.78-.32c1.26,0,2.52-.33,3.78-.33,1.26-.32,1.89-.32,2.84-.65l2.52-.65V21.91ZM258.8,41.8c0-1.95-2.83-3.58-5-3.58h-6.61c-1.89,0-4.41,1.63-4.41,3.58V59.74c0,.33,3.15.65,3.15,1v13h9.45v-13c0-.33,0-.65,3.15-1V41.8ZM244.63,28.43a5.76,5.76,0,0,0,1.57,4.24,6,6,0,0,0,8.19,0A5.11,5.11,0,0,0,256,28.43a5.72,5.72,0,0,0-1.58-4.24,6,6,0,0,0-8.19,0,5.76,5.76,0,0,0-1.57,4.24M315.5,48c0,26.42-20.47,47.62-46,47.62s-46-21.2-46-47.62S244,.38,269.51.38s46,21.2,46,47.62m-35.91-1.63c-4.73,0-6.93,3.26-6.93,9.78a13.85,13.85,0,0,0,1.89,7.5,6.84,6.84,0,0,0,6,2.94h1.89c.63,0,1.26,0,1.26-.33V48c0-.33-.95-.65-1.89-1a2.61,2.61,0,0,0-2.21-.65m-72.76-1.63c-.64,2.28-1.58,4.56-2.21,7.17-.63,2.29-1.57,4.57-2.2,6.85-.95,2.29-1.58,4.24-2.21,6.2-.63-2-1.57-3.91-2.2-6.2-.95-2.28-1.58-4.56-2.52-7.17-.64-2.29-1.58-4.57-2.21-6.85s-1.26-6.52-1.89-6.52h-8.82c1.89,6.52,4.1,13.37,6.62,19.89s4.72,12.72,7.24,16h7.25c2.2-3.26,4.72-9.78,7.24-16,2.52-6.52,4.73-13.37,6.61-19.89H208.4c-.31,0-.94,3.91-1.57,6.52M170.28,56.15c0-3.58-.63-6.85-2.2-8.8a8.34,8.34,0,0,0-13.23,0c-1.57,2.28-2.2,5.22-2.2,8.8,0,3.92.63,6.85,2.2,9.14a8.34,8.34,0,0,0,13.23,0c1.57-2.29,2.2-5.22,2.2-9.14M177.85,48a22.19,22.19,0,0,1,1.26,8.15,23.38,23.38,0,0,1-1.26,8.16,19.5,19.5,0,0,1-3.47,6.19,17.9,17.9,0,0,1-5.67,3.92,16.93,16.93,0,0,1-7.24,1.3,15.5,15.5,0,0,1-6.93-1.3,13.72,13.72,0,0,1-5.36-3.92,14.73,14.73,0,0,1-3.46-6.19,22,22,0,0,1-1.26-8.16A23.13,23.13,0,0,1,145.72,48a28.24,28.24,0,0,1,3.46-6.2,18,18,0,0,1,5.67-3.91,16.44,16.44,0,0,1,6.93-1.31,15.52,15.52,0,0,1,6.93,1.31,17.87,17.87,0,0,1,5.67,3.91,28.67,28.67,0,0,1,3.47,6.2M126.5,67.57c0,.32-1,.32-1.89.32-1.26,0-2.2.33-3.78.33a13,13,0,0,1-6.3-1.3,12.12,12.12,0,0,1-4.41-3.59,16.8,16.8,0,0,1-2.83-5.87,27,27,0,0,1-1-7.5c0-5.55,1.26-10.11,3.78-13.38s6.3-4.89,11.34-4.89a23.39,23.39,0,0,1,6.62,1,15,15,0,0,1,5,2.28l2.51-7.5a7,7,0,0,0-1.57-1c-.94-.32-1.89-1-3.15-1.3s-2.83-.65-4.41-1a35.58,35.58,0,0,0-6-.32,28.33,28.33,0,0,0-9.14,1.63,24.47,24.47,0,0,0-7.56,5.21,23.5,23.5,0,0,0-5,8.16A30.18,30.18,0,0,0,96.89,50a38.91,38.91,0,0,0,1.58,11.09,22.6,22.6,0,0,0,4.72,8.15,16.14,16.14,0,0,0,7.25,4.89,22.14,22.14,0,0,0,9.45,1.63,42.74,42.74,0,0,0,9.76-1c2.84-.65,6-1,6-1.63V48h-9.45V67.57ZM80.19,51.91A133.31,133.31,0,0,1,76.1,65.29a34.46,34.46,0,0,1-2.52-6.85c-.94-2.29-1.57-4.9-2.52-7.18a58,58,0,0,1-2.21-6.85c-.63-2.28-1.26-6.19-1.57-6.19H58.46Q61.3,48,65.07,57.78c2.52,6.2,5,11.75,7.57,17-1,2.29-1.89,3.92-3.15,4.9a7.91,7.91,0,0,1-5,1.63,15.23,15.23,0,0,1-5-1L57.2,87.14a13.75,13.75,0,0,0,6.62,1.3,21,21,0,0,0,5-.65A10.27,10.27,0,0,0,73,85.51a12.94,12.94,0,0,0,3.15-3.92,37.22,37.22,0,0,0,2.83-5.22C84.29,65,88.7,51.26,92.48,38.22H83.66c-.94,3.26-2.21,8.8-3.47,13.69M52.48,61.7c.31,4.24.62,9.13.62,12.39H44.6c-.32-3.26-.32-11.41-.63-17.28-.32-6.2-.63-11.75-1.26-17.62-.63,1-1.26,2.61-1.89,3.92-.63,1.63-1.57,3.26-2.2,4.89a43.17,43.17,0,0,1-2.52,5.54,40.06,40.06,0,0,0-2.21,5.55,29.56,29.56,0,0,1-2.21,4.56c-.63,2-1.26,3.92-1.57,3.92H23.49c-.31,0-.94-2-1.57-3.59s-1.26-2.93-2.21-4.89c-.63-2-1.57-3.59-2.2-5.55C16.57,51.59,15.94,50,15,48c-.94-1.63-1.57-3.59-2.21-4.89a22.19,22.19,0,0,0-1.89-3.92c-.63,5.87-.94,11.42-1.26,17.29,0,6.2-.31,14.35-.63,17.61H.5c.31-3.26.31-7.83.63-12.39s.63-8.48,1-12.72.63-8.48.94-12.4c.32-4.23,1-8.15,1.26-11.41h8.19c.95,3.26,2.21,3.91,3.47,6.85,1.26,2.61,2.51,5.54,3.77,8.48l3.78,8.8C24.76,52.24,26,55.18,27,57.46c.95-2.61,2.21-5.22,3.46-8.16l3.78-8.8C35.46,37.56,36.73,35,38,32.35s2.52-3.59,3.46-6.85h7.88c.31,3.26.94,7.5,1.26,11.74s.63,8.15.94,12.39c.32,3.91.63,7.83.95,12.07"/></svg>